<svg width="24" height="24" viewBox="0 0 24 24" fill="none" xmlns="http://www.w3.org/2000/svg">
<path d="M0 4C0 1.79086 1.79086 0 4 0H20C22.2091 0 24 1.79086 24 4V20C24 22.2091 22.2091 24 20 24H4C1.79086 24 0 22.2091 0 20V4Z" fill="#2663EB"/>
<path d="M14.06 13.45H15.05V13.73C15.05 14.2233 14.98 14.6933 14.84 15.14C14.7 15.58 14.48 15.97 14.18 16.31C13.88 16.6433 13.4867 16.9033 13 17.09L12.4 16.11C12.7867 15.9633 13.1 15.7667 13.34 15.52C13.5867 15.2733 13.7667 14.9967 13.88 14.69C14 14.3833 14.06 14.0633 14.06 13.73V13.45ZM14.34 13.45H15.32V13.73C15.32 14.0433 15.3767 14.3467 15.49 14.64C15.61 14.9267 15.7933 15.1833 16.04 15.41C16.2867 15.6367 16.6 15.8167 16.98 15.95L16.4 16.94C15.9133 16.7667 15.5167 16.52 15.21 16.2C14.91 15.88 14.69 15.5067 14.55 15.08C14.41 14.6533 14.34 14.2033 14.34 13.73V13.45ZM12.65 12.67H16.71V13.71H12.65V12.67ZM14.06 11.71H15.32V13.14H14.06V11.71ZM19.03 11.63H20.3V17.31H19.03V11.63ZM17.93 13.94H19.4V15.01H17.93V13.94ZM17.11 11.78H18.35V17.26H17.11V11.78ZM13.93 17.7H20.3V20.89H18.97V18.76H13.93V17.7Z" fill="white"/>
</svg>
