<svg width="15" height="20" viewBox="0 0 15 20" fill="none" xmlns="http://www.w3.org/2000/svg">
<path d="M7.28914 14.69L10.1698 11.7967C10.6985 11.2756 11.0561 10.6611 11.2427 9.95336C11.4216 9.26113 11.4216 8.56891 11.2427 7.87669C11.0561 7.16891 10.7004 6.55252 10.1756 6.02752C9.6508 5.50252 9.03463 5.14669 8.3271 4.96002C7.63513 4.78113 6.94315 4.78113 6.25118 4.96002C5.54365 5.14669 4.92748 5.50252 4.40267 6.02752C3.87786 6.55252 3.52215 7.16891 3.33555 7.87669C3.15673 8.56891 3.15673 9.26113 3.33555 9.95336C3.52215 10.6611 3.8798 11.2756 4.4085 11.7967L7.28914 14.69ZM7.28914 16.335L3.58047 12.625C2.90404 11.9561 2.4492 11.1628 2.21595 10.245C1.9827 9.35836 1.9827 8.47169 2.21595 7.58502C2.4492 6.66724 2.9021 5.87197 3.57463 5.19919C4.24717 4.52641 5.04217 4.06947 5.95962 3.82836C6.84597 3.6028 7.73232 3.6028 8.61867 3.82836C9.53612 4.06947 10.3311 4.52641 11.0036 5.19919C11.6762 5.87197 12.1291 6.66724 12.3623 7.58502C12.5956 8.47169 12.5956 9.35836 12.3623 10.245C12.1291 11.1628 11.6742 11.9561 10.9978 12.625L7.28914 16.335ZM7.28914 10.0817C7.49907 10.0817 7.69344 10.0292 7.87227 9.92419C8.05109 9.81919 8.19298 9.67724 8.29795 9.49836C8.40291 9.31947 8.45539 9.12502 8.45539 8.91502C8.45539 8.70502 8.40291 8.51058 8.29795 8.33169C8.19298 8.1528 8.05109 8.01086 7.87227 7.90586C7.69344 7.80086 7.49907 7.74836 7.28914 7.74836C7.07922 7.74836 6.88484 7.80086 6.70602 7.90586C6.52719 8.01086 6.3853 8.1528 6.28033 8.33169C6.17537 8.51058 6.12289 8.70502 6.12289 8.91502C6.12289 9.12502 6.17537 9.31947 6.28033 9.49836C6.3853 9.67724 6.52719 9.81919 6.70602 9.92419C6.88484 10.0292 7.07922 10.0817 7.28914 10.0817ZM7.28914 11.2484C6.86929 11.2484 6.48054 11.1434 6.12289 10.9334C5.76524 10.7234 5.48145 10.4395 5.27153 10.0817C5.0616 9.72391 4.95664 9.33308 4.95664 8.90919C4.95664 8.4853 5.0616 8.09641 5.27153 7.74252C5.48145 7.38863 5.76524 7.10669 6.12289 6.89669C6.48054 6.68669 6.86929 6.58169 7.28914 6.58169C7.70899 6.58169 8.09774 6.68669 8.45539 6.89669C8.81304 7.10669 9.09683 7.38863 9.30675 7.74252C9.51668 8.09641 9.62164 8.4853 9.62164 8.90919C9.62164 9.33308 9.51668 9.72391 9.30675 10.0817C9.09683 10.4395 8.81304 10.7234 8.45539 10.9334C8.09774 11.1434 7.70899 11.2484 7.28914 11.2484Z" fill="#9CA3AF"/>
</svg>
