<svg width="15" height="14" viewBox="0 0 15 14" fill="none" xmlns="http://www.w3.org/2000/svg">
<path d="M7.29672 11.69L10.1804 8.79669C10.7097 8.27558 11.0677 7.66113 11.2545 6.95336C11.4336 6.26113 11.4336 5.56891 11.2545 4.87669C11.0677 4.16891 10.7117 3.55252 10.1863 3.02752C9.66091 2.50252 9.04408 2.14669 8.33579 1.96002C7.64308 1.78113 6.95036 1.78113 6.25764 1.96002C5.54936 2.14669 4.93253 2.50252 4.40716 3.02752C3.88178 3.55252 3.52569 4.16891 3.33889 4.87669C3.15988 5.56891 3.15988 6.26113 3.33889 6.95336C3.52569 7.66113 3.88373 8.27558 4.41299 8.79669L7.29672 11.69ZM7.29672 13.335L3.58407 9.62502C2.90692 8.95613 2.45159 8.1628 2.21809 7.24502C1.98459 6.35836 1.98459 5.47169 2.21809 4.58502C2.45159 3.66724 2.90497 2.87197 3.57823 2.19919C4.25149 1.52641 5.04734 1.06947 5.96577 0.828355C6.85307 0.6028 7.74037 0.6028 8.62767 0.828355C9.5461 1.06947 10.3419 1.52641 11.0152 2.19919C11.6885 2.87197 12.1418 3.66724 12.3753 4.58502C12.6088 5.47169 12.6088 6.35836 12.3753 7.24502C12.1418 8.1628 11.6865 8.95613 11.0094 9.62502L7.29672 13.335ZM7.29672 7.08169C7.50687 7.08169 7.70145 7.02919 7.88047 6.92419C8.05949 6.81919 8.20153 6.67724 8.30661 6.49836C8.41168 6.31947 8.46422 6.12502 8.46422 5.91502C8.46422 5.70502 8.41168 5.51058 8.30661 5.33169C8.20153 5.1528 8.05949 5.01086 7.88047 4.90586C7.70145 4.80086 7.50687 4.74836 7.29672 4.74836C7.08657 4.74836 6.89199 4.80086 6.71297 4.90586C6.53395 5.01086 6.39191 5.1528 6.28683 5.33169C6.18176 5.51058 6.12922 5.70502 6.12922 5.91502C6.12922 6.12502 6.18176 6.31947 6.28683 6.49836C6.39191 6.67724 6.53395 6.81919 6.71297 6.92419C6.89199 7.02919 7.08657 7.08169 7.29672 7.08169ZM7.29672 8.24836C6.87642 8.24836 6.48725 8.14336 6.12922 7.93336C5.77119 7.72336 5.48709 7.43947 5.27694 7.08169C5.06679 6.72391 4.96172 6.33308 4.96172 5.90919C4.96172 5.4853 5.06679 5.09641 5.27694 4.74252C5.48709 4.38863 5.77119 4.10669 6.12922 3.89669C6.48725 3.68669 6.87642 3.58169 7.29672 3.58169C7.71702 3.58169 8.10619 3.68669 8.46422 3.89669C8.82225 4.10669 9.10634 4.38863 9.31649 4.74252C9.52664 5.09641 9.63172 5.4853 9.63172 5.90919C9.63172 6.33308 9.52664 6.72391 9.31649 7.08169C9.10634 7.43947 8.82225 7.72336 8.46422 7.93336C8.10619 8.14336 7.71702 8.24836 7.29672 8.24836Z" fill="#6B7280"/>
</svg>
