<svg width="15" height="20" viewBox="0 0 15 20" fill="none" xmlns="http://www.w3.org/2000/svg">
<path d="M5.74969 9.23C6.02182 9.71222 6.3542 10.1497 6.74683 10.5425C7.13947 10.9353 7.57682 11.2678 8.05887 11.54L8.57202 10.8167C8.65754 10.6922 8.77222 10.6144 8.91606 10.5833C9.0599 10.5522 9.1979 10.5717 9.33008 10.6417C10.162 11.1006 11.0522 11.365 12.0008 11.435C12.1485 11.4506 12.2749 11.5128 12.3798 11.6217C12.4848 11.7306 12.5373 11.8628 12.5373 12.0183V14.62C12.5373 14.7678 12.4867 14.8981 12.3857 15.0108C12.2846 15.1236 12.1602 15.1878 12.0125 15.2033C11.7015 15.2344 11.3905 15.25 11.0795 15.25C9.851 15.25 8.67698 15.0128 7.55738 14.5383C6.47665 14.0794 5.52033 13.4339 4.6884 12.6017C3.85648 11.7694 3.21115 10.8128 2.75243 9.73167C2.27815 8.61167 2.04102 7.43722 2.04102 6.20833C2.04102 5.89722 2.05657 5.58611 2.08767 5.275C2.10322 5.12722 2.16736 5.00278 2.2801 4.90167C2.39283 4.80056 2.52307 4.75 2.67079 4.75H5.27153C5.42703 4.75 5.5592 4.8025 5.66805 4.9075C5.7769 5.0125 5.8391 5.13889 5.85465 5.28667C5.92463 6.23556 6.18898 7.12611 6.6477 7.95833C6.71768 8.09056 6.73712 8.22861 6.70602 8.3725C6.67492 8.51639 6.59717 8.63111 6.47277 8.71667L5.74969 9.23ZM4.28022 8.845L5.38815 8.05167C5.07715 7.375 4.86334 6.66333 4.74672 5.91667H3.20727V6.20833C3.20727 7.27389 3.4133 8.29667 3.82538 9.27667C4.2219 10.2178 4.78365 11.0519 5.51061 11.7792C6.23757 12.5064 7.07144 13.0683 8.01222 13.465C8.99187 13.8772 10.0143 14.0833 11.0795 14.0833H11.371V12.5433C10.6246 12.4267 9.9132 12.2128 9.23678 11.9017L8.44373 13.01C8.12495 12.8856 7.81395 12.7378 7.51073 12.5667L7.47574 12.555C6.90817 12.2283 6.39113 11.8317 5.92463 11.365C5.45813 10.8983 5.0616 10.3811 4.73505 9.81333L4.72339 9.77833C4.55234 9.475 4.40462 9.16389 4.28022 8.845Z" fill="#9CA3AF"/>
</svg>
