<svg width="15" height="20" viewBox="0 0 15 20" fill="none" xmlns="http://www.w3.org/2000/svg">
<path d="M7.28926 15.8333C6.49621 15.8333 5.73815 15.6816 5.01507 15.3783C4.3231 15.0828 3.70693 14.6647 3.16656 14.1241C2.6262 13.5836 2.2083 12.9672 1.91285 12.275C1.60962 11.5516 1.45801 10.7933 1.45801 9.99998C1.45801 9.20665 1.60962 8.44831 1.91285 7.72498C2.2083 7.03276 2.6262 6.41637 3.16656 5.87581C3.70693 5.33526 4.3231 4.9172 5.01507 4.62165C5.73815 4.31831 6.49621 4.16665 7.28926 4.16665C8.08231 4.16665 8.84037 4.31831 9.56345 4.62165C10.2554 4.9172 10.8716 5.33526 11.412 5.87581C11.9523 6.41637 12.3702 7.03276 12.6657 7.72498C12.9689 8.44831 13.1205 9.20665 13.1205 9.99998C13.1205 10.7933 12.9689 11.5516 12.6657 12.275C12.3702 12.9672 11.9523 13.5836 11.412 14.1241C10.8716 14.6647 10.2554 15.0828 9.56345 15.3783C8.84037 15.6816 8.08231 15.8333 7.28926 15.8333ZM7.28926 14.6666C8.13673 14.6666 8.92201 14.4528 9.64508 14.025C10.3448 13.6128 10.9007 13.0566 11.3128 12.3566C11.7404 11.6333 11.9543 10.8478 11.9543 9.99998C11.9543 9.1522 11.7404 8.36665 11.3128 7.64331C10.9007 6.94331 10.3448 6.3872 9.64508 5.97498C8.92201 5.5472 8.13673 5.33331 7.28926 5.33331C6.44178 5.33331 5.65651 5.5472 4.93343 5.97498C4.23368 6.3872 3.67777 6.94331 3.2657 7.64331C2.83807 8.36665 2.62426 9.1522 2.62426 9.99998C2.62426 10.8478 2.83807 11.6333 3.2657 12.3566C3.67777 13.0566 4.23368 13.6128 4.93343 14.025C5.65651 14.4528 6.44178 14.6666 7.28926 14.6666ZM7.87238 9.99998H10.2049V11.1666H6.70613V7.08331H7.87238V9.99998Z" fill="#9CA3AF"/>
</svg>
